<mxfile host="app.diagrams.net" modified="2021-11-08T03:33:16.853Z" agent="5.0 (Macintosh; Intel Mac OS X 10_15_7) AppleWebKit/537.36 (KHTML, like Gecko) Chrome/89.0.4389.90 Safari/537.36" etag="qhMM2jV9xTxoSHZA1Df8" version="15.7.0" type="github">
  <diagram id="07fea595-8f29-1299-0266-81d95cde20df" name="Page-1">
    <mxGraphModel dx="-1040" dy="-41" grid="1" gridSize="10" guides="1" tooltips="1" connect="1" arrows="1" fold="1" page="1" pageScale="1" pageWidth="1169" pageHeight="827" background="none" math="0" shadow="0">
      <root>
        <mxCell id="0" />
        <mxCell id="1" parent="0" />
        <mxCell id="fMBC7oBBjTGbmEfmEoy7-774" value="预期&lt;br&gt;提升" style="ellipse;whiteSpace=wrap;html=1;dashed=1;dashPattern=1 1;" vertex="1" parent="1">
          <mxGeometry x="2649.5" y="1402" width="60.5" height="90" as="geometry" />
        </mxCell>
        <mxCell id="727" value="" style="edgeStyle=none;html=1;fontColor=#000000;strokeWidth=3;strokeColor=#000000;" parent="1" edge="1">
          <mxGeometry width="100" height="100" relative="1" as="geometry">
            <mxPoint x="2437.5" y="1594.5" as="sourcePoint" />
            <mxPoint x="2438" y="1330" as="targetPoint" />
          </mxGeometry>
        </mxCell>
        <mxCell id="734" value="" style="edgeStyle=none;html=1;fontColor=#000000;strokeWidth=3;strokeColor=#000000;" parent="1" edge="1">
          <mxGeometry width="100" height="100" relative="1" as="geometry">
            <mxPoint x="2437.5" y="1594.5" as="sourcePoint" />
            <mxPoint x="2990" y="1595" as="targetPoint" />
          </mxGeometry>
        </mxCell>
        <mxCell id="735" value="时间" style="text;spacingTop=-5;html=1;fontSize=18;fontStyle=0;points=[];strokeColor=none;" parent="1" vertex="1">
          <mxGeometry x="3010" y="1582.5" width="80" height="20" as="geometry" />
        </mxCell>
        <mxCell id="745" value="绩效" style="text;spacingTop=-5;html=1;fontSize=18;fontStyle=0;points=[]" parent="1" vertex="1">
          <mxGeometry x="2420" y="1290" width="80" height="20" as="geometry" />
        </mxCell>
        <mxCell id="fMBC7oBBjTGbmEfmEoy7-753" value="" style="endArrow=none;html=1;rounded=0;curved=1;strokeWidth=3;strokeColor=#487EC0;" edge="1" parent="1">
          <mxGeometry width="50" height="50" relative="1" as="geometry">
            <mxPoint x="2440" y="1480" as="sourcePoint" />
            <mxPoint x="2680" y="1480" as="targetPoint" />
          </mxGeometry>
        </mxCell>
        <mxCell id="fMBC7oBBjTGbmEfmEoy7-754" value="" style="endArrow=none;html=1;rounded=0;curved=1;strokeWidth=3;strokeColor=#487EC0;" edge="1" parent="1">
          <mxGeometry width="50" height="50" relative="1" as="geometry">
            <mxPoint x="2680" y="1420" as="sourcePoint" />
            <mxPoint x="2960" y="1420" as="targetPoint" />
          </mxGeometry>
        </mxCell>
        <mxCell id="fMBC7oBBjTGbmEfmEoy7-757" value="" style="endArrow=none;html=1;curved=1;endFill=0;strokeWidth=3;strokeColor=#2DB7C2;" edge="1" parent="1">
          <mxGeometry width="50" height="50" relative="1" as="geometry">
            <mxPoint x="2440" y="1520" as="sourcePoint" />
            <mxPoint x="2680" y="1460" as="targetPoint" />
            <Array as="points">
              <mxPoint x="2530" y="1430" />
              <mxPoint x="2580" y="1540" />
            </Array>
          </mxGeometry>
        </mxCell>
        <mxCell id="fMBC7oBBjTGbmEfmEoy7-758" value="" style="endArrow=none;dashed=1;html=1;dashPattern=1 3;strokeWidth=2;rounded=0;curved=1;" edge="1" parent="1">
          <mxGeometry width="50" height="50" relative="1" as="geometry">
            <mxPoint x="2580" y="1590" as="sourcePoint" />
            <mxPoint x="2580" y="1510" as="targetPoint" />
          </mxGeometry>
        </mxCell>
        <mxCell id="fMBC7oBBjTGbmEfmEoy7-759" value="1 on 1" style="text;html=1;strokeColor=none;fillColor=none;align=center;verticalAlign=middle;whiteSpace=wrap;rounded=0;" vertex="1" parent="1">
          <mxGeometry x="2550" y="1602.5" width="60" height="30" as="geometry" />
        </mxCell>
        <mxCell id="fMBC7oBBjTGbmEfmEoy7-760" value="" style="endArrow=none;dashed=1;html=1;dashPattern=1 3;strokeWidth=2;rounded=0;curved=1;" edge="1" parent="1">
          <mxGeometry width="50" height="50" relative="1" as="geometry">
            <mxPoint x="2680" y="1590" as="sourcePoint" />
            <mxPoint x="2680" y="1490" as="targetPoint" />
          </mxGeometry>
        </mxCell>
        <mxCell id="fMBC7oBBjTGbmEfmEoy7-761" value="绩效评估" style="text;html=1;strokeColor=none;fillColor=none;align=center;verticalAlign=middle;whiteSpace=wrap;rounded=0;" vertex="1" parent="1">
          <mxGeometry x="2650" y="1602.5" width="60" height="30" as="geometry" />
        </mxCell>
        <mxCell id="fMBC7oBBjTGbmEfmEoy7-762" value="" style="curved=1;endArrow=classic;html=1;rounded=0;strokeWidth=3;strokeColor=#2DB7C2;" edge="1" parent="1">
          <mxGeometry width="50" height="50" relative="1" as="geometry">
            <mxPoint x="2680" y="1460" as="sourcePoint" />
            <mxPoint x="2920" y="1430" as="targetPoint" />
            <Array as="points">
              <mxPoint x="2790" y="1410" />
              <mxPoint x="2820" y="1440" />
            </Array>
          </mxGeometry>
        </mxCell>
        <mxCell id="fMBC7oBBjTGbmEfmEoy7-763" value="" style="endArrow=none;dashed=1;html=1;dashPattern=1 3;strokeWidth=2;rounded=0;curved=1;" edge="1" parent="1">
          <mxGeometry width="50" height="50" relative="1" as="geometry">
            <mxPoint x="2920" y="1590" as="sourcePoint" />
            <mxPoint x="2920" y="1430" as="targetPoint" />
          </mxGeometry>
        </mxCell>
        <mxCell id="fMBC7oBBjTGbmEfmEoy7-764" value="绩效评估" style="text;html=1;strokeColor=none;fillColor=none;align=center;verticalAlign=middle;whiteSpace=wrap;rounded=0;" vertex="1" parent="1">
          <mxGeometry x="2880" y="1600" width="60" height="30" as="geometry" />
        </mxCell>
        <mxCell id="fMBC7oBBjTGbmEfmEoy7-765" value="" style="endArrow=none;dashed=1;html=1;dashPattern=1 3;strokeWidth=2;rounded=0;curved=1;" edge="1" parent="1">
          <mxGeometry width="50" height="50" relative="1" as="geometry">
            <mxPoint x="2820" y="1590" as="sourcePoint" />
            <mxPoint x="2820" y="1430" as="targetPoint" />
          </mxGeometry>
        </mxCell>
        <mxCell id="fMBC7oBBjTGbmEfmEoy7-766" value="1 on 1" style="text;html=1;strokeColor=none;fillColor=none;align=center;verticalAlign=middle;whiteSpace=wrap;rounded=0;" vertex="1" parent="1">
          <mxGeometry x="2790" y="1600" width="60" height="30" as="geometry" />
        </mxCell>
        <mxCell id="fMBC7oBBjTGbmEfmEoy7-767" value="" style="endArrow=none;html=1;rounded=0;curved=1;strokeWidth=3;strokeColor=#487EC0;" edge="1" parent="1">
          <mxGeometry width="50" height="50" relative="1" as="geometry">
            <mxPoint x="2720" y="1320" as="sourcePoint" />
            <mxPoint x="2870" y="1320" as="targetPoint" />
          </mxGeometry>
        </mxCell>
        <mxCell id="fMBC7oBBjTGbmEfmEoy7-768" value="" style="endArrow=none;html=1;endFill=0;strokeWidth=3;strokeColor=#2DB7C2;rounded=0;" edge="1" parent="1">
          <mxGeometry width="50" height="50" relative="1" as="geometry">
            <mxPoint x="2720" y="1350" as="sourcePoint" />
            <mxPoint x="2870" y="1350" as="targetPoint" />
            <Array as="points">
              <mxPoint x="2820" y="1350" />
            </Array>
          </mxGeometry>
        </mxCell>
        <mxCell id="fMBC7oBBjTGbmEfmEoy7-769" value="预期" style="text;spacingTop=-5;html=1;fontSize=18;fontStyle=0;points=[];strokeColor=none;" vertex="1" parent="1">
          <mxGeometry x="2883" y="1310" width="80" height="20" as="geometry" />
        </mxCell>
        <mxCell id="fMBC7oBBjTGbmEfmEoy7-770" value="实际" style="text;spacingTop=-5;html=1;fontSize=18;fontStyle=0;points=[];strokeColor=none;" vertex="1" parent="1">
          <mxGeometry x="2883" y="1340" width="80" height="20" as="geometry" />
        </mxCell>
        <mxCell id="fMBC7oBBjTGbmEfmEoy7-771" value="优良" style="text;html=1;strokeColor=none;fillColor=none;align=center;verticalAlign=middle;whiteSpace=wrap;rounded=0;" vertex="1" parent="1">
          <mxGeometry x="2670" y="1462" width="60" height="30" as="geometry" />
        </mxCell>
        <mxCell id="fMBC7oBBjTGbmEfmEoy7-772" value="待改进" style="text;html=1;strokeColor=none;fillColor=none;align=center;verticalAlign=middle;whiteSpace=wrap;rounded=0;" vertex="1" parent="1">
          <mxGeometry x="2918" y="1428" width="60" height="30" as="geometry" />
        </mxCell>
      </root>
    </mxGraphModel>
  </diagram>
</mxfile>
